<?xml version="1.0" ?><!DOCTYPE svg  PUBLIC '-//W3C//DTD SVG 1.1//EN'  'http://www.w3.org/Graphics/SVG/1.1/DTD/svg11.dtd'><svg enable-background="new 0 0 200 200" height="200px" id="Layer_1" version="1.1" viewBox="0 0 200 200" width="200px" xml:space="preserve" xmlns="http://www.w3.org/2000/svg" xmlns:xlink="http://www.w3.org/1999/xlink"><g><g><path d="M129.943,110.652V35.258c0-3.708,3.012-6.716,6.714-6.716h49.914v82.11H129.943z" fill="#F2F2F2"/><path d="M193.285,28.542c3.705,0,6.715,3.008,6.715,6.716h-56.628c0-3.708-3.007-6.716-6.715-6.716H193.285z" fill="#242D3C"/><g><g><g><polygon fill="#FF6D3B" points="174.857,78.364 172.897,78.925 170.942,81.515 168.983,81.742 167.023,83.453 165.068,82.483        162.791,80.492 161.148,82.918 159.188,83.777 157.233,82.717 155.275,83.641 153.32,84.061 151.36,86.599 149.405,87.757        147.448,86.14 145.485,85.588 143.526,87.931 141.568,87.424 139.613,88.76 137.593,89.139 137.593,92.065 178.922,92.083        178.922,75.397 176.815,76.353      "/><polygon fill="#F2F2F2" points="174.857,81.932 172.897,82.345 170.942,84.26 168.983,84.432 167.023,85.693 165.068,84.981        162.791,83.504 161.148,85.306 159.188,85.941 157.233,85.149 155.275,85.833 153.32,86.144 151.36,88.024 149.405,88.885        147.448,87.685 145.485,87.274 143.526,89.013 141.568,88.635 139.613,89.62 137.593,89.904 137.593,92.07 178.922,92.083        178.922,79.731 176.815,80.438      "/><polygon fill="#06B2B8" points="174.857,88.164 172.897,88.325 170.942,89.062 168.983,89.127 167.023,89.62 165.068,89.342        162.791,88.771 161.148,89.469 159.188,89.711 157.233,89.407 155.275,89.672 153.32,89.794 151.36,90.515 149.405,90.851        147.448,90.385 145.485,90.224 143.526,90.896 141.568,90.75 139.613,91.133 137.593,91.241 137.593,92.075 178.922,92.083        178.922,87.314 176.815,87.586      "/></g><g><rect fill="#CCCBCA" height="4.321" width="11.778" x="137.593" y="94.471"/><rect fill="#CCCBCA" height="4.321" width="27.402" x="151.52" y="94.471"/></g><rect fill="#CCCBCA" height="1.339" width="41.329" x="137.593" y="102.548"/></g><g><g><rect fill="#CCCBCA" height="1.34" width="27.739" x="144.39" y="48.707"/><rect fill="#CCCBCA" height="1.339" width="41.329" x="137.593" y="52.224"/><rect fill="#CCCBCA" height="1.338" width="41.329" x="137.593" y="55.742"/><rect fill="#CCCBCA" height="1.338" width="41.329" x="137.593" y="59.259"/><rect fill="#CCCBCA" height="1.338" width="41.329" x="137.593" y="62.776"/><rect fill="#CCCBCA" height="1.337" width="41.329" x="137.593" y="66.293"/></g><rect fill="#FF6D3B" height="2.565" width="36.636" x="139.94" y="41.296"/><rect fill="#CCCBCA" height="1.337" width="12.447" x="137.593" y="74.168"/></g></g></g><g><rect fill="#F2F2F2" height="47.762" width="101.733" x="11.01" y="86.528"/><rect fill="#E6E5E5" height="33.911" width="101.733" x="11.01" y="52.618"/><g><rect fill="#242D3C" height="16.958" width="42.276" x="66.737" y="61.094"/><rect fill="#21D8DE" height="10.173" width="35.491" x="70.13" y="64.486"/><g><rect fill="#06B2B8" height="1.017" width="16.336" x="71.992" y="66.408"/><rect fill="#06B2B8" height="1.017" width="8.692" x="90.022" y="66.408"/><rect fill="#06B2B8" height="1.017" width="3.348" x="100.408" y="66.408"/><rect fill="#06B2B8" height="1.018" width="5.019" x="71.992" y="69.064"/><rect fill="#06B2B8" height="1.018" width="25.049" x="78.707" y="69.064"/><rect fill="#06B2B8" height="1.018" width="7.942" x="71.992" y="71.72"/></g></g><g><rect fill="#CCCBCA" height="16.958" width="33.063" x="14.742" y="61.094"/><rect fill="#242D3C" height="3.391" width="24.925" x="18.811" y="67.877"/></g><rect fill="#CCCBCA" height="25.434" width="101.733" x="11.01" y="134.29"/><rect fill="#3E4959" height="38.149" width="94.271" x="14.742" y="138.021"/><rect fill="#242D3C" height="35.775" width="89.524" x="17.115" y="138.021"/><rect fill="#CCCBCA" height="17.974" width="94.271" x="14.742" y="167.183"/><circle cx="61.875" cy="176.17" fill="#FFFFFF" r="2.543"/><g><defs><rect height="35.775" id="SVGID_1_" width="89.524" x="17.115" y="138.021"/></defs><clipPath id="SVGID_2_"><use overflow="visible" xlink:href="#SVGID_1_"/></clipPath><g clip-path="url(#SVGID_2_)"><g><rect fill="#21D8DE" height="30.258" width="17.537" x="49.015" y="133.762"/><rect fill="#06B2B8" height="28.437" width="15.721" x="49.926" y="134.672"/><rect fill="#21D8DE" height="26.547" width="13.832" x="50.87" y="135.616"/><circle cx="57.785" cy="148.89" fill="#06B2B8" r="5.313"/><g><path d="M57.45,149.425v-1.07c0-0.422,0.164-0.818,0.461-1.117c0.3-0.299,0.698-0.464,1.121-0.464        c0.422,0,0.817,0.165,1.118,0.464c0.298,0.299,0.461,0.695,0.461,1.117v1.984c0,0.184-0.149,0.335-0.332,0.335        c-0.186,0-0.334-0.151-0.334-0.335v-1.984c0-0.242-0.095-0.473-0.269-0.646s-0.4-0.267-0.644-0.267        c-0.244,0-0.474,0.094-0.647,0.267s-0.266,0.403-0.266,0.646v1.07c0,0.185-0.151,0.334-0.334,0.334        C57.599,149.759,57.45,149.609,57.45,149.425z" fill="#21D8DE"/><path d="M54.954,149.425v-1.982c0-0.186,0.151-0.335,0.334-0.335c0.185,0,0.334,0.149,0.334,0.335v1.982        c0,0.243,0.095,0.476,0.269,0.646c0.171,0.174,0.4,0.269,0.645,0.269c0.247,0,0.476-0.095,0.647-0.269        c0.173-0.17,0.268-0.402,0.268-0.646v-1.07c0-0.184,0.149-0.333,0.334-0.333c0.183,0,0.334,0.149,0.334,0.333v1.07        c0,0.423-0.166,0.819-0.464,1.117c-0.3,0.3-0.698,0.464-1.12,0.464s-0.82-0.164-1.118-0.464        C55.117,150.245,54.954,149.848,54.954,149.425z" fill="#21D8DE"/><path d="M54.241,148.89c0-0.184,0.151-0.332,0.334-0.332h6.417c0.183,0,0.334,0.148,0.334,0.332        c0,0.186-0.151,0.334-0.334,0.334h-6.417C54.392,149.224,54.241,149.075,54.241,148.89z" fill="#21D8DE"/></g><g><path d="M54.236,134.672h-4.31v4.311C52.127,138.602,53.855,136.874,54.236,134.672z" fill="#06B2B8"/><path d="M61.331,163.108h4.315v-4.312C63.442,159.177,61.714,160.905,61.331,163.108z" fill="#06B2B8"/><path d="M54.236,163.108c-0.381-2.2-2.109-3.929-4.31-4.311v4.311H54.236z" fill="#06B2B8"/><path d="M65.646,138.983v-4.312h-4.315C61.714,136.875,63.442,138.603,65.646,138.983z" fill="#06B2B8"/></g></g><g><rect fill="#21D8DE" height="30.258" width="17.537" x="68.194" y="133.762"/><rect fill="#06B2B8" height="28.437" width="15.718" x="69.105" y="134.672"/><rect fill="#21D8DE" height="26.547" width="13.83" x="70.049" y="135.616"/><circle cx="76.962" cy="148.89" fill="#06B2B8" r="5.313"/><g><path d="M76.627,149.425v-1.07c0-0.422,0.164-0.818,0.464-1.117c0.3-0.299,0.698-0.464,1.118-0.464        c0.422,0,0.82,0.165,1.12,0.464c0.298,0.299,0.461,0.695,0.461,1.117v1.984c0,0.184-0.149,0.335-0.332,0.335        c-0.186,0-0.334-0.151-0.334-0.335v-1.984c0-0.242-0.095-0.473-0.268-0.646s-0.4-0.267-0.647-0.267        c-0.244,0-0.474,0.094-0.645,0.267c-0.173,0.173-0.269,0.403-0.269,0.646v1.07c0,0.185-0.148,0.334-0.334,0.334        C76.779,149.759,76.627,149.609,76.627,149.425z" fill="#21D8DE"/><path d="M74.133,149.425v-1.982c0-0.186,0.149-0.335,0.334-0.335c0.183,0,0.332,0.149,0.332,0.335v1.982        c0,0.243,0.098,0.476,0.271,0.646c0.171,0.174,0.4,0.269,0.644,0.269s0.474-0.095,0.647-0.269        c0.173-0.17,0.266-0.402,0.266-0.646v-1.07c0-0.184,0.151-0.333,0.334-0.333c0.186,0,0.334,0.149,0.334,0.333v1.07        c0,0.423-0.163,0.819-0.463,1.117c-0.298,0.3-0.696,0.464-1.118,0.464c-0.422,0-0.82-0.164-1.118-0.464        C74.296,150.245,74.133,149.848,74.133,149.425z" fill="#21D8DE"/><path d="M73.42,148.89c0-0.184,0.149-0.332,0.334-0.332h6.417c0.183,0,0.334,0.148,0.334,0.332        c0,0.186-0.151,0.334-0.334,0.334h-6.417C73.569,149.224,73.42,149.075,73.42,148.89z" fill="#21D8DE"/></g><g><path d="M73.416,134.672h-4.311v4.311C71.307,138.602,73.035,136.874,73.416,134.672z" fill="#06B2B8"/><path d="M80.511,163.108h4.313v-4.312C82.622,159.177,80.892,160.905,80.511,163.108z" fill="#06B2B8"/><path d="M73.416,163.108c-0.381-2.2-2.109-3.929-4.311-4.311v4.311H73.416z" fill="#06B2B8"/><path d="M84.823,138.983v-4.312h-4.313C80.892,136.875,82.622,138.603,84.823,138.983z" fill="#06B2B8"/></g></g><g><rect fill="#21D8DE" height="30.258" width="17.534" x="87.374" y="133.762"/><rect fill="#06B2B8" height="28.437" width="15.719" x="88.284" y="134.672"/><rect fill="#21D8DE" height="26.547" width="13.83" x="89.229" y="135.616"/><circle cx="96.141" cy="148.89" fill="#06B2B8" r="5.313"/><g><path d="M95.807,149.425v-1.07c0-0.422,0.164-0.818,0.464-1.117c0.298-0.299,0.696-0.464,1.118-0.464        c0.422,0,0.82,0.165,1.118,0.464c0.3,0.299,0.464,0.695,0.464,1.117v1.984c0,0.184-0.149,0.335-0.334,0.335        c-0.183,0-0.334-0.151-0.334-0.335v-1.984c0-0.242-0.093-0.473-0.266-0.646s-0.403-0.267-0.647-0.267        c-0.244,0-0.473,0.094-0.644,0.267c-0.173,0.173-0.269,0.403-0.269,0.646v1.07c0,0.185-0.149,0.334-0.334,0.334        S95.807,149.609,95.807,149.425z" fill="#21D8DE"/><path d="M93.313,149.425v-1.982c0-0.186,0.149-0.335,0.334-0.335c0.183,0,0.332,0.149,0.332,0.335v1.982        c0,0.243,0.095,0.476,0.269,0.646c0.173,0.174,0.403,0.269,0.647,0.269s0.474-0.095,0.644-0.269        c0.173-0.17,0.269-0.402,0.269-0.646v-1.07c0-0.184,0.149-0.333,0.334-0.333s0.334,0.149,0.334,0.333v1.07        c0,0.423-0.166,0.819-0.464,1.117c-0.298,0.3-0.695,0.464-1.118,0.464s-0.82-0.164-1.118-0.464        C93.476,150.245,93.313,149.848,93.313,149.425z" fill="#21D8DE"/><path d="M92.6,148.89c0-0.184,0.149-0.332,0.334-0.332h6.414c0.186,0,0.334,0.148,0.334,0.332        c0,0.186-0.149,0.334-0.334,0.334h-6.414C92.749,149.224,92.6,149.075,92.6,148.89z" fill="#21D8DE"/></g><g><path d="M92.595,134.672h-4.311v4.311C90.486,138.602,92.211,136.874,92.595,134.672z" fill="#06B2B8"/><path d="M99.688,163.108h4.315v-4.312C101.799,159.177,100.071,160.905,99.688,163.108z" fill="#06B2B8"/><path d="M92.595,163.108c-0.383-2.2-2.109-3.929-4.311-4.311v4.311H92.595z" fill="#06B2B8"/><path d="M104.003,138.983v-4.312h-4.315C100.071,136.875,101.799,138.603,104.003,138.983z" fill="#06B2B8"/></g></g></g></g><rect fill="#3E4959" height="29.162" width="1.186" x="46.101" y="138.021"/><g><g><path d="M26.875,147.719c0,1.979-1.604,3.585-3.578,3.585c-1.979,0-3.583-1.606-3.583-3.585      c0-1.976,1.604-3.579,3.583-3.579C25.271,144.14,26.875,145.743,26.875,147.719z" fill="#FFBB33"/><path d="M26.875,147.298c0,1.979-1.604,3.586-3.578,3.586c-1.979,0-3.583-1.606-3.583-3.586      c0-1.977,1.604-3.578,3.583-3.578C25.271,143.72,26.875,145.321,26.875,147.298z" fill="#FFD85C"/><path d="M23.297,149.98c-1.481,0-2.68-1.202-2.68-2.683c0-1.477,1.198-2.68,2.68-2.68      c1.477,0,2.68,1.203,2.68,2.68C25.977,148.778,24.773,149.98,23.297,149.98z" fill="#FFCA40"/><path d="M20.9,147.586c0-1.476,1.204-2.68,2.68-2.68c0.669,0,1.279,0.245,1.748,0.65      c-0.493-0.572-1.22-0.938-2.031-0.938c-1.481,0-2.68,1.203-2.68,2.68c0,0.814,0.361,1.544,0.93,2.033      C21.146,148.861,20.9,148.255,20.9,147.586z" fill="#FFBB33"/></g><g><path d="M31.356,148.828c0,1.979-1.604,3.583-3.578,3.583c-1.979,0-3.583-1.604-3.583-3.583      c0-1.977,1.604-3.58,3.583-3.58C29.753,145.248,31.356,146.852,31.356,148.828z" fill="#FFBB33"/><path d="M31.356,148.406c0,1.979-1.604,3.584-3.578,3.584c-1.979,0-3.583-1.604-3.583-3.584      c0-1.978,1.604-3.578,3.583-3.578C29.753,144.828,31.356,146.429,31.356,148.406z" fill="#FFD85C"/><path d="M27.778,151.089c-1.481,0-2.68-1.202-2.68-2.683c0-1.477,1.199-2.68,2.68-2.68      c1.477,0,2.68,1.203,2.68,2.68C30.458,149.887,29.255,151.089,27.778,151.089z" fill="#FFCA40"/><path d="M25.381,148.696c0-1.478,1.203-2.682,2.68-2.682c0.668,0,1.279,0.245,1.748,0.651      c-0.493-0.573-1.221-0.939-2.031-0.939c-1.481,0-2.68,1.203-2.68,2.68c0,0.815,0.364,1.545,0.93,2.033      C25.628,149.97,25.381,149.363,25.381,148.696z" fill="#FFBB33"/></g><g><path d="M42.074,145.035c0,1.979-1.604,3.586-3.581,3.586c-1.979,0-3.581-1.606-3.581-3.586      c0-1.975,1.601-3.578,3.581-3.578C40.47,141.457,42.074,143.061,42.074,145.035z" fill="#FFBB33"/><path d="M42.074,144.615c0,1.979-1.604,3.584-3.581,3.584c-1.979,0-3.581-1.604-3.581-3.584      c0-1.977,1.601-3.578,3.581-3.578C40.47,141.037,42.074,142.639,42.074,144.615z" fill="#FFD85C"/><circle cx="38.493" cy="144.616" fill="#FFCA40" r="2.681"/><path d="M36.099,144.903c0-1.477,1.203-2.68,2.68-2.68c0.668,0,1.279,0.244,1.748,0.649      c-0.493-0.572-1.223-0.938-2.033-0.938c-1.479,0-2.68,1.201-2.68,2.68c0,0.815,0.366,1.543,0.933,2.032      C36.345,146.178,36.099,145.571,36.099,144.903z" fill="#FFBB33"/></g><g><circle cx="36.713" cy="159.722" fill="#FFBB33" r="3.579"/><path d="M40.292,159.299c0,1.979-1.601,3.586-3.581,3.586s-3.578-1.606-3.578-3.586      c0-1.976,1.599-3.578,3.578-3.578S40.292,157.323,40.292,159.299z" fill="#FFD85C"/><path d="M36.711,161.981c-1.479,0-2.678-1.2-2.678-2.683c0-1.477,1.199-2.68,2.678-2.68s2.682,1.203,2.682,2.68      C39.394,160.781,38.19,161.981,36.711,161.981z" fill="#FFCA40"/><path d="M34.317,159.589c0-1.476,1.203-2.679,2.68-2.679c0.668,0,1.279,0.242,1.748,0.648      c-0.493-0.573-1.221-0.939-2.033-0.939c-1.479,0-2.678,1.203-2.678,2.68c0,0.815,0.361,1.546,0.933,2.033      C34.563,160.862,34.317,160.257,34.317,159.589z" fill="#FFBB33"/></g></g><g><path d="M0,41.66v5.813c0,1.437,1.167,2.603,2.602,2.603h5.382V41.66H0z" fill="#F2F2F2"/><path d="M7.806,14.843c-1.436,0-2.602,1.167-2.602,2.602v30.028c0,1.437-1.167,2.603-2.602,2.603h23.519V14.843     H7.806z" fill="#CCCBCA"/><path d="M30.563,15.605c-0.508-0.508-1.174-0.762-1.84-0.762H7.806c1.435,0,2.602,1.167,2.602,2.602v21.029     c0,0.816,0.378,1.549,0.972,2.026c0.446,0.36,1.013,0.577,1.63,0.577h18.315V17.445C31.325,16.779,31.071,16.113,30.563,15.605z" fill="#E6E5E5"/><g><rect fill="#CCCBCA" height="0.672" width="14.935" x="13.373" y="26.688"/><rect fill="#CCCBCA" height="0.672" width="14.935" x="13.373" y="24.815"/><rect fill="#CCCBCA" height="0.673" width="14.935" x="13.373" y="22.942"/><rect fill="#CCCBCA" height="0.674" width="14.935" x="13.373" y="21.07"/><rect fill="#CCCBCA" height="0.673" width="14.935" x="13.373" y="19.196"/><rect fill="#CCCBCA" height="0.673" width="14.935" x="13.373" y="28.561"/><rect fill="#CCCBCA" height="0.673" width="14.935" x="13.373" y="30.433"/><rect fill="#CCCBCA" height="0.673" width="14.935" x="13.373" y="32.305"/><rect fill="#CCCBCA" height="0.674" width="14.935" x="13.373" y="34.178"/><rect fill="#CCCBCA" height="0.673" width="7.466" x="13.373" y="36.051"/></g><path d="M18.213,25.19c-1.438,0-2.602,1.167-2.602,2.602v10.683c0,1.437-1.162,2.603-2.602,2.603h9.86V25.19     H18.213z" fill="#D9D8D7"/><path d="M40.968,25.953c-0.507-0.508-1.174-0.762-1.838-0.762H18.213c1.438,0,2.602,1.164,2.602,2.602v41.779     h20.917V27.793C41.732,27.126,41.478,26.461,40.968,25.953z" fill="#F2F2F2"/><g><rect fill="#CCCBCA" height="0.672" width="14.938" x="23.805" y="29.817"/><rect fill="#CCCBCA" height="0.674" width="14.938" x="23.805" y="31.689"/><rect fill="#CCCBCA" height="0.674" width="14.938" x="23.805" y="33.562"/><rect fill="#CCCBCA" height="0.674" width="14.938" x="23.805" y="35.434"/><rect fill="#CCCBCA" height="0.674" width="14.938" x="23.805" y="37.307"/><rect fill="#CCCBCA" height="0.674" width="14.938" x="23.805" y="39.18"/><rect fill="#CCCBCA" height="0.674" width="14.938" x="23.805" y="41.052"/><rect fill="#CCCBCA" height="0.674" width="14.938" x="23.805" y="42.924"/><rect fill="#CCCBCA" height="0.674" width="14.938" x="23.805" y="44.797"/><rect fill="#CCCBCA" height="0.673" width="14.938" x="23.805" y="46.671"/><rect fill="#CCCBCA" height="0.673" width="14.938" x="23.805" y="48.543"/><rect fill="#CCCBCA" height="0.673" width="14.938" x="23.805" y="50.415"/><rect fill="#CCCBCA" height="0.674" width="14.938" x="23.805" y="52.288"/><rect fill="#CCCBCA" height="0.673" width="14.938" x="23.805" y="54.162"/></g><g><circle cx="24.322" cy="65.169" fill="#CCCBCA" r="0.517"/><circle cx="26.309" cy="65.168" fill="#CCCBCA" r="0.516"/><circle cx="28.293" cy="65.169" fill="#CCCBCA" r="0.517"/><circle cx="30.282" cy="65.169" fill="#CCCBCA" r="0.517"/><circle cx="32.267" cy="65.169" fill="#CCCBCA" r="0.517"/><circle cx="34.253" cy="65.169" fill="#CCCBCA" r="0.517"/><path d="M36.238,64.652c-0.283,0-0.515,0.232-0.515,0.518c0,0.285,0.232,0.516,0.515,0.516      c0.288,0,0.518-0.231,0.518-0.516C36.755,64.884,36.526,64.652,36.238,64.652z" fill="#CCCBCA"/><circle cx="38.225" cy="65.169" fill="#CCCBCA" r="0.517"/></g></g><g><rect fill="#CCCBCA" height="7.121" width="6.78" x="84.484" y="45.497"/><rect fill="#E6E5E5" height="16.955" width="42.276" x="66.737" y="28.542"/><rect fill="#242D3C" height="11.87" width="42.276" x="66.737" y="31.084"/><g><rect fill="#21D8DE" height="4.409" width="1.354" x="104.945" y="34.815"/><rect fill="#21D8DE" height="4.409" width="1.357" x="100.725" y="34.815"/><rect fill="#21D8DE" height="4.409" width="1.357" x="96.507" y="34.815"/><rect fill="#21D8DE" height="4.409" width="1.357" x="92.29" y="34.815"/><rect fill="#21D8DE" height="4.409" width="1.357" x="88.072" y="34.815"/></g></g><g><g><rect fill="#F15424" height="5.425" width="5.423" x="14.742" y="90.259"/><rect fill="#F15424" height="5.425" width="5.423" x="23.954" y="90.259"/><rect fill="#CCCBCA" height="5.425" width="5.423" x="33.167" y="90.259"/><rect fill="#F15424" height="5.423" width="5.423" x="14.742" y="99.472"/><rect fill="#F15424" height="5.423" width="5.423" x="23.954" y="99.472"/><rect fill="#CCCBCA" height="5.423" width="5.423" x="33.167" y="99.472"/><rect fill="#CCCBCA" height="5.426" width="5.423" x="14.742" y="108.683"/><rect fill="#CCCBCA" height="5.426" width="5.423" x="23.954" y="108.683"/><rect fill="#CCCBCA" height="5.426" width="5.423" x="33.167" y="108.683"/><rect fill="#CCCBCA" height="5.425" width="5.423" x="14.742" y="117.896"/><rect fill="#CCCBCA" height="5.425" width="5.423" x="23.954" y="117.896"/><rect fill="#CCCBCA" height="5.425" width="5.423" x="33.167" y="117.896"/></g><g><rect fill="#3E4959" height="5.425" width="5.423" x="45.347" y="90.259"/><rect fill="#3E4959" height="5.423" width="5.423" x="45.347" y="99.472"/><rect fill="#3E4959" height="5.426" width="5.423" x="45.347" y="108.683"/><rect fill="#3E4959" height="5.425" width="5.423" x="45.347" y="117.896"/><rect fill="#3E4959" height="5.425" width="5.426" x="54.558" y="90.259"/><rect fill="#3E4959" height="5.423" width="5.426" x="54.558" y="99.472"/><rect fill="#3E4959" height="5.426" width="5.426" x="54.558" y="108.683"/><rect fill="#3E4959" height="5.425" width="5.426" x="54.558" y="117.896"/></g><g><rect fill="#CCCBCA" height="5.425" width="5.426" x="75.949" y="90.259"/><rect fill="#CCCBCA" height="5.425" width="5.426" x="85.163" y="90.259"/><rect fill="#CCCBCA" height="5.425" width="5.423" x="94.376" y="90.259"/><rect fill="#CCCBCA" height="5.425" width="5.426" x="103.588" y="90.259"/><rect fill="#CCCBCA" height="5.423" width="5.426" x="75.949" y="99.472"/><rect fill="#CCCBCA" height="5.423" width="5.426" x="85.163" y="99.472"/><rect fill="#CCCBCA" height="5.423" width="5.423" x="94.376" y="99.472"/><rect fill="#CCCBCA" height="5.423" width="5.426" x="103.588" y="99.472"/><rect fill="#CCCBCA" height="5.426" width="5.426" x="75.949" y="108.683"/><rect fill="#CCCBCA" height="5.426" width="5.426" x="85.163" y="108.683"/><rect fill="#CCCBCA" height="5.426" width="5.423" x="94.376" y="108.683"/><rect fill="#CCCBCA" height="5.426" width="5.426" x="103.588" y="108.683"/><rect fill="#CCCBCA" height="5.425" width="5.426" x="75.949" y="117.896"/><rect fill="#CCCBCA" height="5.425" width="5.423" x="66.737" y="90.259"/><rect fill="#CCCBCA" height="5.423" width="5.423" x="66.737" y="99.472"/><rect fill="#CCCBCA" height="5.426" width="5.423" x="66.737" y="108.683"/><rect fill="#CCCBCA" height="5.425" width="5.423" x="66.737" y="117.896"/><rect fill="#CCCBCA" height="5.425" width="5.426" x="85.163" y="117.896"/><rect fill="#CCCBCA" height="5.425" width="5.423" x="94.376" y="117.896"/><rect fill="#CCCBCA" height="5.425" width="5.426" x="103.588" y="117.896"/></g></g></g><g><rect fill="#3E4959" height="40.138" width="40.136" x="122.096" y="119.586"/><g><rect fill="#FFD85C" height="4.947" width="4.949" x="126.219" y="123.574"/><rect fill="#FFD85C" height="4.947" width="4.952" x="135.288" y="123.574"/><rect fill="#FFFFFF" height="4.947" width="4.945" x="144.365" y="123.574"/><rect fill="#FFFFFF" height="4.947" width="4.947" x="153.436" y="123.574"/><rect fill="#FFFFFF" height="4.947" width="4.949" x="126.219" y="132.646"/><rect fill="#FFFFFF" height="4.947" width="4.952" x="135.288" y="132.646"/><rect fill="#FFFFFF" height="4.947" width="4.945" x="144.365" y="132.646"/><rect fill="#FFFFFF" height="4.947" width="4.947" x="153.436" y="132.646"/><rect fill="#FFFFFF" height="4.95" width="4.949" x="126.219" y="141.716"/><rect fill="#FFFFFF" height="4.95" width="4.952" x="135.288" y="141.716"/><rect fill="#FFFFFF" height="4.95" width="4.945" x="144.365" y="141.716"/><rect fill="#FFFFFF" height="4.947" width="4.949" x="126.219" y="150.791"/><rect fill="#FFFFFF" height="4.947" width="4.952" x="135.288" y="150.791"/><rect fill="#FFFFFF" height="4.947" width="4.945" x="144.365" y="150.791"/><rect fill="#FF6D3B" height="14.022" width="4.947" x="153.436" y="141.716"/></g><rect fill="#242D3C" height="17.867" width="40.136" x="122.096" y="101.719"/><rect fill="#21D8DE" height="12.159" width="34.427" x="124.949" y="104.572"/></g><g><polygon fill="#E6E5E5" points="186.571,124.942 183.895,119.586 181.219,124.942   "/><rect fill="#FFBB33" height="60.214" width="5.353" x="181.219" y="124.942"/><rect fill="#FFD85C" height="60.214" width="2.676" x="181.219" y="124.942"/><polygon fill="#242D3C" points="184.94,121.683 183.895,119.586 182.843,121.683   "/><rect fill="#E6E5E5" height="1.892" width="5.353" x="181.219" y="178.771"/><rect fill="#242D3C" height="4.493" width="5.353" x="181.219" y="180.663"/></g></g></svg>